<svg xmlns="http://www.w3.org/2000/svg" viewBox="0 0 460 128" role="img" aria-labelledby="title desc">
  <title id="title">Luthn wordmark</title>
  <desc id="desc">Luthn dotted signal-routing mark and wordmark.</desc>
  <rect width="460" height="128" rx="18" fill="#F8FAFC"/>
  <g transform="translate(18 14)">
    <rect width="100" height="100" rx="20" fill="#0F172A"/>
    <path d="M22 26h18c9 0 13 8 18 17l7 13c5 9 9 14 22 14" fill="none" stroke="#64748B" stroke-width="5" stroke-linecap="round"/>
    <path d="M22 74h21c8 0 13-7 18-16l7-13c5-9 9-14 19-14" fill="none" stroke="#14B8A6" stroke-width="5" stroke-linecap="round"/>
    <path d="M22 50h54" fill="none" stroke="#3B82F6" stroke-width="5" stroke-linecap="round"/>
    <g fill="#F8FAFC">
      <circle cx="22" cy="26" r="6"/>
      <circle cx="22" cy="50" r="6"/>
      <circle cx="22" cy="74" r="6"/>
    </g>
    <g fill="#22D3EE">
      <circle cx="50" cy="50" r="7"/>
      <circle cx="78" cy="31" r="6"/>
      <circle cx="78" cy="70" r="6"/>
    </g>
  </g>
  <text x="142" y="82" fill="#0F172A" font-family="ui-monospace, SFMono-Regular, Menlo, Consolas, monospace" font-size="54" font-weight="700" letter-spacing="0">LUTHN</text>
  <circle cx="397" cy="48" r="5" fill="#14B8A6"/>
  <circle cx="417" cy="64" r="5" fill="#22D3EE"/>
  <circle cx="397" cy="80" r="5" fill="#3B82F6"/>
</svg>
